<mxfile host="Electron" modified="2024-02-17T16:48:09.173Z" agent="Mozilla/5.0 (Windows NT 10.0; Win64; x64) AppleWebKit/537.36 (KHTML, like Gecko) draw.io/21.2.1 Chrome/112.0.5615.87 Electron/24.1.2 Safari/537.36" etag="VtstM_2ro_WH1geNmSZn" version="21.2.1" type="device" pages="2">
  <diagram name="Class Diagram" id="jyELPEOLcUdb4yAaoyde">
    <mxGraphModel dx="662" dy="625" grid="0" gridSize="10" guides="1" tooltips="1" connect="1" arrows="1" fold="1" page="0" pageScale="1" pageWidth="1100" pageHeight="850" math="0" shadow="0">
      <root>
        <mxCell id="0" />
        <mxCell id="1" parent="0" />
        <mxCell id="wl2g2i7sd3YN2e0J-RTG-9" style="rounded=0;orthogonalLoop=1;jettySize=auto;html=1;startArrow=diamondThin;startFill=1;endArrow=none;endFill=0;" edge="1" parent="1" source="wl2g2i7sd3YN2e0J-RTG-1" target="wl2g2i7sd3YN2e0J-RTG-4">
          <mxGeometry relative="1" as="geometry">
            <Array as="points">
              <mxPoint x="657" y="335" />
            </Array>
          </mxGeometry>
        </mxCell>
        <mxCell id="wl2g2i7sd3YN2e0J-RTG-10" value="baseStats" style="edgeLabel;html=1;align=center;verticalAlign=middle;resizable=0;points=[];" vertex="1" connectable="0" parent="wl2g2i7sd3YN2e0J-RTG-9">
          <mxGeometry x="0.7377" y="-1" relative="1" as="geometry">
            <mxPoint x="-19" y="-19" as="offset" />
          </mxGeometry>
        </mxCell>
        <mxCell id="wl2g2i7sd3YN2e0J-RTG-1" value="Player" style="swimlane;fontStyle=1;align=center;verticalAlign=middle;childLayout=stackLayout;horizontal=1;startSize=29;horizontalStack=0;resizeParent=1;resizeParentMax=0;resizeLast=0;collapsible=0;marginBottom=0;html=1;whiteSpace=wrap;" vertex="1" parent="1">
          <mxGeometry x="452" y="381" width="140" height="54" as="geometry" />
        </mxCell>
        <mxCell id="wl2g2i7sd3YN2e0J-RTG-4" value="StatsMap" style="swimlane;fontStyle=1;align=center;verticalAlign=middle;childLayout=stackLayout;horizontal=1;startSize=29;horizontalStack=0;resizeParent=1;resizeParentMax=0;resizeLast=0;collapsible=0;marginBottom=0;html=1;whiteSpace=wrap;" vertex="1" parent="1">
          <mxGeometry x="770" y="283" width="187" height="104" as="geometry" />
        </mxCell>
        <mxCell id="wl2g2i7sd3YN2e0J-RTG-5" value="-&amp;nbsp;get( statName )" style="text;html=1;strokeColor=none;fillColor=none;align=left;verticalAlign=middle;spacingLeft=4;spacingRight=4;overflow=hidden;rotatable=0;points=[[0,0.5],[1,0.5]];portConstraint=eastwest;whiteSpace=wrap;" vertex="1" parent="wl2g2i7sd3YN2e0J-RTG-4">
          <mxGeometry y="29" width="187" height="25" as="geometry" />
        </mxCell>
        <mxCell id="wl2g2i7sd3YN2e0J-RTG-6" value="-&amp;nbsp;set( statName, newValue )" style="text;html=1;strokeColor=none;fillColor=none;align=left;verticalAlign=middle;spacingLeft=4;spacingRight=4;overflow=hidden;rotatable=0;points=[[0,0.5],[1,0.5]];portConstraint=eastwest;whiteSpace=wrap;" vertex="1" parent="wl2g2i7sd3YN2e0J-RTG-4">
          <mxGeometry y="54" width="187" height="25" as="geometry" />
        </mxCell>
        <mxCell id="wl2g2i7sd3YN2e0J-RTG-27" value="+ apply( rhsStats )" style="text;html=1;strokeColor=none;fillColor=none;align=left;verticalAlign=middle;spacingLeft=4;spacingRight=4;overflow=hidden;rotatable=0;points=[[0,0.5],[1,0.5]];portConstraint=eastwest;whiteSpace=wrap;" vertex="1" parent="wl2g2i7sd3YN2e0J-RTG-4">
          <mxGeometry y="79" width="187" height="25" as="geometry" />
        </mxCell>
        <mxCell id="wl2g2i7sd3YN2e0J-RTG-11" value="«Enumeration»&lt;br&gt;StatName" style="swimlane;fontStyle=1;align=center;verticalAlign=middle;childLayout=stackLayout;horizontal=1;startSize=29;horizontalStack=0;resizeParent=1;resizeParentMax=0;resizeLast=0;collapsible=0;marginBottom=0;html=1;whiteSpace=wrap;" vertex="1" parent="1">
          <mxGeometry x="765" y="53" width="187" height="129" as="geometry" />
        </mxCell>
        <mxCell id="wl2g2i7sd3YN2e0J-RTG-13" value="DAMAGE" style="text;html=1;strokeColor=none;fillColor=none;align=left;verticalAlign=middle;spacingLeft=4;spacingRight=4;overflow=hidden;rotatable=0;points=[[0,0.5],[1,0.5]];portConstraint=eastwest;whiteSpace=wrap;" vertex="1" parent="wl2g2i7sd3YN2e0J-RTG-11">
          <mxGeometry y="29" width="187" height="25" as="geometry" />
        </mxCell>
        <mxCell id="wl2g2i7sd3YN2e0J-RTG-18" value="DEFENSE" style="text;html=1;strokeColor=none;fillColor=none;align=left;verticalAlign=middle;spacingLeft=4;spacingRight=4;overflow=hidden;rotatable=0;points=[[0,0.5],[1,0.5]];portConstraint=eastwest;whiteSpace=wrap;" vertex="1" parent="wl2g2i7sd3YN2e0J-RTG-11">
          <mxGeometry y="54" width="187" height="25" as="geometry" />
        </mxCell>
        <mxCell id="wl2g2i7sd3YN2e0J-RTG-14" value="MAX_HP" style="text;html=1;strokeColor=none;fillColor=none;align=left;verticalAlign=middle;spacingLeft=4;spacingRight=4;overflow=hidden;rotatable=0;points=[[0,0.5],[1,0.5]];portConstraint=eastwest;whiteSpace=wrap;" vertex="1" parent="wl2g2i7sd3YN2e0J-RTG-11">
          <mxGeometry y="79" width="187" height="25" as="geometry" />
        </mxCell>
        <mxCell id="wl2g2i7sd3YN2e0J-RTG-17" value="..." style="text;html=1;strokeColor=none;fillColor=none;align=left;verticalAlign=middle;spacingLeft=4;spacingRight=4;overflow=hidden;rotatable=0;points=[[0,0.5],[1,0.5]];portConstraint=eastwest;whiteSpace=wrap;" vertex="1" parent="wl2g2i7sd3YN2e0J-RTG-11">
          <mxGeometry y="104" width="187" height="25" as="geometry" />
        </mxCell>
        <mxCell id="wl2g2i7sd3YN2e0J-RTG-19" value="«Enumeration»&lt;br&gt;PartSlot" style="swimlane;fontStyle=1;align=center;verticalAlign=middle;childLayout=stackLayout;horizontal=1;startSize=29;horizontalStack=0;resizeParent=1;resizeParentMax=0;resizeLast=0;collapsible=0;marginBottom=0;html=1;whiteSpace=wrap;" vertex="1" parent="1">
          <mxGeometry x="525" y="53" width="187" height="129" as="geometry" />
        </mxCell>
        <mxCell id="wl2g2i7sd3YN2e0J-RTG-20" value="LEFT_ARM" style="text;html=1;strokeColor=none;fillColor=none;align=left;verticalAlign=middle;spacingLeft=4;spacingRight=4;overflow=hidden;rotatable=0;points=[[0,0.5],[1,0.5]];portConstraint=eastwest;whiteSpace=wrap;" vertex="1" parent="wl2g2i7sd3YN2e0J-RTG-19">
          <mxGeometry y="29" width="187" height="25" as="geometry" />
        </mxCell>
        <mxCell id="wl2g2i7sd3YN2e0J-RTG-21" value="RIGHT_ARM" style="text;html=1;strokeColor=none;fillColor=none;align=left;verticalAlign=middle;spacingLeft=4;spacingRight=4;overflow=hidden;rotatable=0;points=[[0,0.5],[1,0.5]];portConstraint=eastwest;whiteSpace=wrap;" vertex="1" parent="wl2g2i7sd3YN2e0J-RTG-19">
          <mxGeometry y="54" width="187" height="25" as="geometry" />
        </mxCell>
        <mxCell id="wl2g2i7sd3YN2e0J-RTG-22" value="EYES?" style="text;html=1;strokeColor=none;fillColor=none;align=left;verticalAlign=middle;spacingLeft=4;spacingRight=4;overflow=hidden;rotatable=0;points=[[0,0.5],[1,0.5]];portConstraint=eastwest;whiteSpace=wrap;" vertex="1" parent="wl2g2i7sd3YN2e0J-RTG-19">
          <mxGeometry y="79" width="187" height="25" as="geometry" />
        </mxCell>
        <mxCell id="wl2g2i7sd3YN2e0J-RTG-23" value="..." style="text;html=1;strokeColor=none;fillColor=none;align=left;verticalAlign=middle;spacingLeft=4;spacingRight=4;overflow=hidden;rotatable=0;points=[[0,0.5],[1,0.5]];portConstraint=eastwest;whiteSpace=wrap;" vertex="1" parent="wl2g2i7sd3YN2e0J-RTG-19">
          <mxGeometry y="104" width="187" height="25" as="geometry" />
        </mxCell>
        <mxCell id="wl2g2i7sd3YN2e0J-RTG-24" value="PartsSlotsMap" style="swimlane;fontStyle=1;align=center;verticalAlign=middle;childLayout=stackLayout;horizontal=1;startSize=29;horizontalStack=0;resizeParent=1;resizeParentMax=0;resizeLast=0;collapsible=0;marginBottom=0;html=1;whiteSpace=wrap;" vertex="1" parent="1">
          <mxGeometry x="706" y="504" width="187" height="104" as="geometry" />
        </mxCell>
        <mxCell id="wl2g2i7sd3YN2e0J-RTG-25" value="+ get( slot )" style="text;html=1;strokeColor=none;fillColor=none;align=left;verticalAlign=middle;spacingLeft=4;spacingRight=4;overflow=hidden;rotatable=0;points=[[0,0.5],[1,0.5]];portConstraint=eastwest;whiteSpace=wrap;" vertex="1" parent="wl2g2i7sd3YN2e0J-RTG-24">
          <mxGeometry y="29" width="187" height="25" as="geometry" />
        </mxCell>
        <mxCell id="wl2g2i7sd3YN2e0J-RTG-26" value="+ set( slot, newPart )" style="text;html=1;strokeColor=none;fillColor=none;align=left;verticalAlign=middle;spacingLeft=4;spacingRight=4;overflow=hidden;rotatable=0;points=[[0,0.5],[1,0.5]];portConstraint=eastwest;whiteSpace=wrap;" vertex="1" parent="wl2g2i7sd3YN2e0J-RTG-24">
          <mxGeometry y="54" width="187" height="25" as="geometry" />
        </mxCell>
        <mxCell id="wl2g2i7sd3YN2e0J-RTG-32" value="+ computeStats( baseStats )" style="text;html=1;strokeColor=none;fillColor=none;align=left;verticalAlign=middle;spacingLeft=4;spacingRight=4;overflow=hidden;rotatable=0;points=[[0,0.5],[1,0.5]];portConstraint=eastwest;whiteSpace=wrap;" vertex="1" parent="wl2g2i7sd3YN2e0J-RTG-24">
          <mxGeometry y="79" width="187" height="25" as="geometry" />
        </mxCell>
        <mxCell id="wl2g2i7sd3YN2e0J-RTG-28" style="rounded=0;orthogonalLoop=1;jettySize=auto;html=1;startArrow=diamondThin;startFill=1;endArrow=none;endFill=0;" edge="1" parent="1" source="wl2g2i7sd3YN2e0J-RTG-1" target="wl2g2i7sd3YN2e0J-RTG-24">
          <mxGeometry relative="1" as="geometry">
            <mxPoint x="602" y="403" as="sourcePoint" />
            <mxPoint x="780" y="365" as="targetPoint" />
          </mxGeometry>
        </mxCell>
        <mxCell id="wl2g2i7sd3YN2e0J-RTG-29" value="slots" style="edgeLabel;html=1;align=center;verticalAlign=middle;resizable=0;points=[];" vertex="1" connectable="0" parent="wl2g2i7sd3YN2e0J-RTG-28">
          <mxGeometry x="0.7377" y="-1" relative="1" as="geometry">
            <mxPoint x="-2" y="-18" as="offset" />
          </mxGeometry>
        </mxCell>
        <mxCell id="wl2g2i7sd3YN2e0J-RTG-33" value="Part" style="swimlane;fontStyle=1;align=center;verticalAlign=middle;childLayout=stackLayout;horizontal=1;startSize=29;horizontalStack=0;resizeParent=1;resizeParentMax=0;resizeLast=0;collapsible=0;marginBottom=0;html=1;whiteSpace=wrap;" vertex="1" parent="1">
          <mxGeometry x="1060" y="497" width="235" height="54" as="geometry" />
        </mxCell>
        <mxCell id="wl2g2i7sd3YN2e0J-RTG-36" value="+ applyStats( baseStats ) -&amp;gt; StatsMap" style="text;html=1;strokeColor=none;fillColor=none;align=left;verticalAlign=middle;spacingLeft=4;spacingRight=4;overflow=hidden;rotatable=0;points=[[0,0.5],[1,0.5]];portConstraint=eastwest;whiteSpace=wrap;" vertex="1" parent="wl2g2i7sd3YN2e0J-RTG-33">
          <mxGeometry y="29" width="235" height="25" as="geometry" />
        </mxCell>
        <mxCell id="wl2g2i7sd3YN2e0J-RTG-37" style="rounded=0;orthogonalLoop=1;jettySize=auto;html=1;startArrow=diamondThin;startFill=1;endArrow=none;endFill=0;" edge="1" parent="1" source="wl2g2i7sd3YN2e0J-RTG-24" target="wl2g2i7sd3YN2e0J-RTG-33">
          <mxGeometry relative="1" as="geometry">
            <mxPoint x="583" y="445" as="sourcePoint" />
            <mxPoint x="716" y="516" as="targetPoint" />
          </mxGeometry>
        </mxCell>
        <mxCell id="wl2g2i7sd3YN2e0J-RTG-38" value="*" style="edgeLabel;html=1;align=center;verticalAlign=middle;resizable=0;points=[];" vertex="1" connectable="0" parent="wl2g2i7sd3YN2e0J-RTG-37">
          <mxGeometry x="0.7377" y="-1" relative="1" as="geometry">
            <mxPoint x="8" y="11" as="offset" />
          </mxGeometry>
        </mxCell>
        <mxCell id="wl2g2i7sd3YN2e0J-RTG-39" style="rounded=0;orthogonalLoop=1;jettySize=auto;html=1;startArrow=diamondThin;startFill=1;endArrow=none;endFill=0;" edge="1" parent="1" source="wl2g2i7sd3YN2e0J-RTG-33" target="wl2g2i7sd3YN2e0J-RTG-4">
          <mxGeometry relative="1" as="geometry">
            <mxPoint x="602" y="403" as="sourcePoint" />
            <mxPoint x="780" y="365" as="targetPoint" />
          </mxGeometry>
        </mxCell>
        <mxCell id="wl2g2i7sd3YN2e0J-RTG-40" value="stats" style="edgeLabel;html=1;align=center;verticalAlign=middle;resizable=0;points=[];" vertex="1" connectable="0" parent="wl2g2i7sd3YN2e0J-RTG-39">
          <mxGeometry x="0.7377" y="-1" relative="1" as="geometry">
            <mxPoint x="14" y="-9" as="offset" />
          </mxGeometry>
        </mxCell>
        <mxCell id="9e7vpwQE-YsXEnkoWxY6-3" style="rounded=0;orthogonalLoop=1;jettySize=auto;html=1;startArrow=diamondThin;startFill=1;endArrow=none;endFill=0;" edge="1" parent="1" source="wl2g2i7sd3YN2e0J-RTG-1" target="wl2g2i7sd3YN2e0J-RTG-4">
          <mxGeometry relative="1" as="geometry">
            <mxPoint x="903" y="558" as="sourcePoint" />
            <mxPoint x="1070" y="544" as="targetPoint" />
            <Array as="points">
              <mxPoint x="681" y="417" />
            </Array>
          </mxGeometry>
        </mxCell>
        <mxCell id="9e7vpwQE-YsXEnkoWxY6-4" value="finalStats" style="edgeLabel;html=1;align=center;verticalAlign=middle;resizable=0;points=[];" vertex="1" connectable="0" parent="9e7vpwQE-YsXEnkoWxY6-3">
          <mxGeometry x="0.7377" y="-1" relative="1" as="geometry">
            <mxPoint x="-21" y="-11" as="offset" />
          </mxGeometry>
        </mxCell>
      </root>
    </mxGraphModel>
  </diagram>
  <diagram id="rb3sTZquhD43px1ClNMI" name="Sequence: computeStats">
    <mxGraphModel dx="1595" dy="703" grid="0" gridSize="10" guides="1" tooltips="1" connect="1" arrows="1" fold="1" page="0" pageScale="1" pageWidth="1100" pageHeight="850" math="0" shadow="0">
      <root>
        <mxCell id="0" />
        <mxCell id="1" parent="0" />
        <mxCell id="oVbxUl9QR_u9WX2l9Vbw-3" value="slots" style="shape=umlLifeline;perimeter=lifelinePerimeter;whiteSpace=wrap;html=1;container=1;dropTarget=0;collapsible=0;recursiveResize=0;outlineConnect=0;portConstraint=eastwest;newEdgeStyle={&quot;edgeStyle&quot;:&quot;elbowEdgeStyle&quot;,&quot;elbow&quot;:&quot;vertical&quot;,&quot;curved&quot;:0,&quot;rounded&quot;:0};" vertex="1" parent="1">
          <mxGeometry x="243" y="352" width="100" height="600" as="geometry" />
        </mxCell>
        <mxCell id="7bBRnHbYaHAbhIVM5G_e-2" value="" style="html=1;points=[[0,0.05,0,0,0],[0,0.96,0,0,0]];perimeter=orthogonalPerimeter;outlineConnect=0;targetShapes=umlLifeline;portConstraint=eastwest;newEdgeStyle={&quot;edgeStyle&quot;:&quot;elbowEdgeStyle&quot;,&quot;elbow&quot;:&quot;vertical&quot;,&quot;curved&quot;:0,&quot;rounded&quot;:0};" vertex="1" parent="oVbxUl9QR_u9WX2l9Vbw-3">
          <mxGeometry x="45" y="90" width="10" height="217" as="geometry" />
        </mxCell>
        <mxCell id="oVbxUl9QR_u9WX2l9Vbw-5" value="player" style="shape=umlLifeline;perimeter=lifelinePerimeter;whiteSpace=wrap;html=1;container=1;dropTarget=0;collapsible=0;recursiveResize=0;outlineConnect=0;portConstraint=eastwest;newEdgeStyle={&quot;edgeStyle&quot;:&quot;elbowEdgeStyle&quot;,&quot;elbow&quot;:&quot;vertical&quot;,&quot;curved&quot;:0,&quot;rounded&quot;:0};" vertex="1" parent="1">
          <mxGeometry x="90" y="352" width="100" height="600" as="geometry" />
        </mxCell>
        <mxCell id="oVbxUl9QR_u9WX2l9Vbw-6" value="" style="html=1;points=[];perimeter=orthogonalPerimeter;outlineConnect=0;targetShapes=umlLifeline;portConstraint=eastwest;newEdgeStyle={&quot;edgeStyle&quot;:&quot;elbowEdgeStyle&quot;,&quot;elbow&quot;:&quot;vertical&quot;,&quot;curved&quot;:0,&quot;rounded&quot;:0};" vertex="1" parent="oVbxUl9QR_u9WX2l9Vbw-5">
          <mxGeometry x="45" y="67" width="10" height="338" as="geometry" />
        </mxCell>
        <mxCell id="oVbxUl9QR_u9WX2l9Vbw-7" value="stats" style="shape=umlLifeline;perimeter=lifelinePerimeter;whiteSpace=wrap;html=1;container=1;dropTarget=0;collapsible=0;recursiveResize=0;outlineConnect=0;portConstraint=eastwest;newEdgeStyle={&quot;edgeStyle&quot;:&quot;elbowEdgeStyle&quot;,&quot;elbow&quot;:&quot;vertical&quot;,&quot;curved&quot;:0,&quot;rounded&quot;:0};" vertex="1" parent="1">
          <mxGeometry x="536" y="352" width="100" height="600" as="geometry" />
        </mxCell>
        <mxCell id="SlhwY-ZjWD3BSsyxZ_PR-1" value="" style="html=1;points=[[0,0.05,0,0,0],[0,0.96,0,0,0]];perimeter=orthogonalPerimeter;outlineConnect=0;targetShapes=umlLifeline;portConstraint=eastwest;newEdgeStyle={&quot;edgeStyle&quot;:&quot;elbowEdgeStyle&quot;,&quot;elbow&quot;:&quot;vertical&quot;,&quot;curved&quot;:0,&quot;rounded&quot;:0};" vertex="1" parent="oVbxUl9QR_u9WX2l9Vbw-7">
          <mxGeometry x="45" y="171" width="10" height="47" as="geometry" />
        </mxCell>
        <mxCell id="oVbxUl9QR_u9WX2l9Vbw-9" value="part" style="shape=umlLifeline;perimeter=lifelinePerimeter;whiteSpace=wrap;html=1;container=1;dropTarget=0;collapsible=0;recursiveResize=0;outlineConnect=0;portConstraint=eastwest;newEdgeStyle={&quot;edgeStyle&quot;:&quot;elbowEdgeStyle&quot;,&quot;elbow&quot;:&quot;vertical&quot;,&quot;curved&quot;:0,&quot;rounded&quot;:0};" vertex="1" parent="1">
          <mxGeometry x="403" y="352" width="100" height="600" as="geometry" />
        </mxCell>
        <mxCell id="Hkac9QNGn8CQKDdGSW3j-4" value="" style="html=1;points=[[0,0.05,0,0,0],[0,0.96,0,0,0]];perimeter=orthogonalPerimeter;outlineConnect=0;targetShapes=umlLifeline;portConstraint=eastwest;newEdgeStyle={&quot;edgeStyle&quot;:&quot;elbowEdgeStyle&quot;,&quot;elbow&quot;:&quot;vertical&quot;,&quot;curved&quot;:0,&quot;rounded&quot;:0};" vertex="1" parent="oVbxUl9QR_u9WX2l9Vbw-9">
          <mxGeometry x="45" y="150" width="10" height="98" as="geometry" />
        </mxCell>
        <mxCell id="7bBRnHbYaHAbhIVM5G_e-1" value="" style="html=1;verticalAlign=bottom;labelBackgroundColor=none;endArrow=block;endFill=1;rounded=0;entryX=0;entryY=0.05;entryDx=0;entryDy=0;entryPerimeter=0;" edge="1" parent="1" source="oVbxUl9QR_u9WX2l9Vbw-6" target="7bBRnHbYaHAbhIVM5G_e-2">
          <mxGeometry width="160" relative="1" as="geometry">
            <mxPoint x="348" y="514" as="sourcePoint" />
            <mxPoint x="255" y="479" as="targetPoint" />
          </mxGeometry>
        </mxCell>
        <mxCell id="7bBRnHbYaHAbhIVM5G_e-4" value="computeStats(baseStats)" style="edgeLabel;html=1;align=center;verticalAlign=middle;resizable=0;points=[];" vertex="1" connectable="0" parent="7bBRnHbYaHAbhIVM5G_e-1">
          <mxGeometry x="0.2753" y="-1" relative="1" as="geometry">
            <mxPoint x="-24" y="-11" as="offset" />
          </mxGeometry>
        </mxCell>
        <mxCell id="jEFWQnqLDNuWWNkJM558-1" value="finalStats" style="html=1;verticalAlign=bottom;labelBackgroundColor=none;endArrow=block;endFill=1;dashed=1;rounded=0;exitX=0;exitY=0.96;exitDx=0;exitDy=0;exitPerimeter=0;" edge="1" parent="1" source="7bBRnHbYaHAbhIVM5G_e-2" target="oVbxUl9QR_u9WX2l9Vbw-6">
          <mxGeometry width="160" relative="1" as="geometry">
            <mxPoint x="403" y="439" as="sourcePoint" />
            <mxPoint x="563" y="439" as="targetPoint" />
          </mxGeometry>
        </mxCell>
        <mxCell id="jEFWQnqLDNuWWNkJM558-2" value="&lt;b&gt;loop&lt;/b&gt;" style="shape=umlFrame;whiteSpace=wrap;html=1;pointerEvents=0;" vertex="1" parent="1">
          <mxGeometry x="164" y="472" width="471" height="152" as="geometry" />
        </mxCell>
        <mxCell id="jEFWQnqLDNuWWNkJM558-3" value="[for each part]" style="text;html=1;align=left;verticalAlign=middle;resizable=0;points=[];autosize=1;strokeColor=none;fillColor=none;" vertex="1" parent="1">
          <mxGeometry x="-235" y="559" width="92" height="26" as="geometry" />
        </mxCell>
        <mxCell id="bpSHwj3I485FgChVKkr6-1" value="for each part" style="text;html=1;align=center;verticalAlign=middle;resizable=0;points=[];autosize=1;strokeColor=none;fillColor=none;" vertex="1" parent="1">
          <mxGeometry x="165" y="508" width="85" height="26" as="geometry" />
        </mxCell>
        <mxCell id="Hkac9QNGn8CQKDdGSW3j-2" value="" style="html=1;verticalAlign=bottom;labelBackgroundColor=none;endArrow=block;endFill=1;rounded=0;entryX=0;entryY=0.05;entryDx=0;entryDy=0;entryPerimeter=0;" edge="1" parent="1" source="7bBRnHbYaHAbhIVM5G_e-2" target="Hkac9QNGn8CQKDdGSW3j-4">
          <mxGeometry width="160" relative="1" as="geometry">
            <mxPoint x="155" y="468" as="sourcePoint" />
            <mxPoint x="420" y="562" as="targetPoint" />
          </mxGeometry>
        </mxCell>
        <mxCell id="Hkac9QNGn8CQKDdGSW3j-3" value="applyStats(stats)" style="edgeLabel;html=1;align=center;verticalAlign=middle;resizable=0;points=[];" vertex="1" connectable="0" parent="Hkac9QNGn8CQKDdGSW3j-2">
          <mxGeometry x="0.2753" y="-1" relative="1" as="geometry">
            <mxPoint x="-24" y="-11" as="offset" />
          </mxGeometry>
        </mxCell>
        <mxCell id="Hkac9QNGn8CQKDdGSW3j-5" value="stats" style="html=1;verticalAlign=bottom;labelBackgroundColor=none;endArrow=block;endFill=1;dashed=1;rounded=0;exitX=0;exitY=0.96;exitDx=0;exitDy=0;exitPerimeter=0;" edge="1" parent="1" source="Hkac9QNGn8CQKDdGSW3j-4" target="7bBRnHbYaHAbhIVM5G_e-2">
          <mxGeometry width="160" relative="1" as="geometry">
            <mxPoint x="298" y="753" as="sourcePoint" />
            <mxPoint x="155" y="753" as="targetPoint" />
          </mxGeometry>
        </mxCell>
        <mxCell id="SlhwY-ZjWD3BSsyxZ_PR-2" value="" style="html=1;verticalAlign=bottom;labelBackgroundColor=none;endArrow=block;endFill=1;rounded=0;entryX=0;entryY=0.05;entryDx=0;entryDy=0;entryPerimeter=0;" edge="1" target="SlhwY-ZjWD3BSsyxZ_PR-1" parent="1" source="Hkac9QNGn8CQKDdGSW3j-4">
          <mxGeometry width="160" relative="1" as="geometry">
            <mxPoint x="431" y="515" as="sourcePoint" />
            <mxPoint x="553" y="568" as="targetPoint" />
          </mxGeometry>
        </mxCell>
        <mxCell id="SlhwY-ZjWD3BSsyxZ_PR-3" value="apply(stats)" style="edgeLabel;html=1;align=center;verticalAlign=middle;resizable=0;points=[];" vertex="1" connectable="0" parent="SlhwY-ZjWD3BSsyxZ_PR-2">
          <mxGeometry x="0.2753" y="-1" relative="1" as="geometry">
            <mxPoint x="-24" y="-11" as="offset" />
          </mxGeometry>
        </mxCell>
        <mxCell id="SlhwY-ZjWD3BSsyxZ_PR-4" value="stats" style="html=1;verticalAlign=bottom;labelBackgroundColor=none;endArrow=block;endFill=1;dashed=1;rounded=0;exitX=0;exitY=0.96;exitDx=0;exitDy=0;exitPerimeter=0;" edge="1" source="SlhwY-ZjWD3BSsyxZ_PR-1" parent="1" target="Hkac9QNGn8CQKDdGSW3j-4">
          <mxGeometry width="160" relative="1" as="geometry">
            <mxPoint x="431" y="759" as="sourcePoint" />
            <mxPoint x="431" y="651" as="targetPoint" />
          </mxGeometry>
        </mxCell>
      </root>
    </mxGraphModel>
  </diagram>
</mxfile>
